PathFileType  4	(X/Y/Z) C:\Users\antoi\Documents\MyRepositories\mobilecap\ResultsAnalysis
DataRate	CameraRate	NumFrames	NumMarkers	Units	OrigDataRate	OrigDataStartFrame	OrigNumFrames
100.0	100.0	7	51	mm	100.0	104	138
Frame#	Time	r_knee			r_shank_antsup			r_ankle			r_calc			r_5meta			r_toe			L_knee			L_shank_antsup			L_ankle			L_calc			L_5meta			L_toe			r_sh2			r_sh3			r_sh4			L_sh2			L_sh3			r_thigh1			r_thigh2			r_thigh3			r_thigh4			r_thigh5			L_thigh1			L_thigh2			L_thigh3			L_thigh4			r.ASIS			r.PSIS			L.ASIS			L.PSIS			C7			R_Shoulder			L_Shoulder			R_Sternum			L_Sternum			R_humerus			R_elbow_med			R_elbow_lat			R_forearm			R_wrist_radius			R_wrist_ulna			L_humerus			L_elbow_med			L_elbow_lat			L_forearm			L_wrist_radius			L_wrist_ulna			R_HJC			L_HJC			R_HJC_reg			L_HJC_reg			
		X1	Y1	Z1	X2	Y2	Z2	X3	Y3	Z3	X4	Y4	Z4	X5	Y5	Z5	X6	Y6	Z6	X7	Y7	Z7	X8	Y8	Z8	X9	Y9	Z9	X10	Y10	Z10	X11	Y11	Z11	X12	Y12	Z12	X13	Y13	Z13	X14	Y14	Z14	X15	Y15	Z15	X16	Y16	Z16	X17	Y17	Z17	X18	Y18	Z18	X19	Y19	Z19	X20	Y20	Z20	X21	Y21	Z21	X22	Y22	Z22	X23	Y23	Z23	X24	Y24	Z24	X25	Y25	Z25	X26	Y26	Z26	X27	Y27	Z27	X28	Y28	Z28	X29	Y29	Z29	X30	Y30	Z30	X31	Y31	Z31	X32	Y32	Z32	X33	Y33	Z33	X34	Y34	Z34	X35	Y35	Z35	X36	Y36	Z36	X37	Y37	Z37	X38	Y38	Z38	X39	Y39	Z39	X40	Y40	Z40	X41	Y41	Z41	X42	Y42	Z42	X43	Y43	Z43	X44	Y44	Z44	X45	Y45	Z45	X46	Y46	Z46	X47	Y47	Z47	X48	Y48	Z48	X49	Y49	Z49	X50	Y50	Z50	X51	Y51	Z51	

104	1.03000000	1209.45087	476.17642	-118.69873	1280.23237	385.58392	-136.02780	1295.93006	103.49222	-160.87658	1261.70017	51.09684	-211.89166	1419.13027	92.45754	-132.00200	1445.67219	128.49035	-172.51224	953.25981	462.52192	-408.42741	962.46166	357.38631	-349.02412	817.72309	92.27668	-350.85871	762.15139	58.56146	-305.13992	931.09141	37.03443	-360.74945	967.00525	53.57585	-304.68035	1300.96235	276.10104	-152.25311	1224.83961	365.34428	-86.52575	1229.85741	255.04986	-111.54368	927.59738	376.87442	-427.53783	893.11459	262.38912	-426.31519	1151.71969	781.83571	-120.66228	1205.70262	685.70445	-122.09495	1176.97124	643.10371	-75.52807	1063.80587	732.71906	-72.08938	1121.66338	632.88534	-71.40811	1085.35583	737.57171	-428.68081	1065.40786	601.15653	-414.82870	982.11834	753.18966	-470.05716	961.31804	613.99535	-450.46927	1128.66593	915.97597	-148.08173	945.96520	960.29610	-210.17420	1131.39970	915.10556	-389.22001	943.74347	969.65492	-326.99629	972.58793	1416.68987	-263.30878	1015.87189	1380.67668	-107.94075	1051.84416	1397.93117	-412.80787	1099.28403	1366.83603	-232.81264	1103.94047	1364.97147	-276.40966	1001.18460	1253.83772	-41.28467	897.24051	1077.64317	-112.27269	906.42254	1081.64330	-36.77862	923.88425	956.11485	-9.26279	927.73855	852.11722	-6.40517	890.05370	855.55888	3.44743	1105.29543	1264.09523	-479.35637	1083.68710	1057.20671	-455.14195	1105.09850	1078.20811	-522.09557	1190.82179	1023.94528	-535.33807	1280.68496	930.99470	-519.73491	1262.97953	912.83139	-540.76892	1036.76559	845.87240	-171.71274	1040.90055	844.90644	-361.03884	1059.46802	839.16160	-186.26241	1056.45095	851.87065	-344.88647	
105	1.04000000	1218.82920	472.93331	-116.70881	1293.65266	386.09965	-134.75651	1322.29818	104.57706	-161.89208	1290.43925	51.14631	-212.65635	1447.51107	98.27283	-134.88965	1471.79738	136.18763	-174.99145	959.75678	461.96646	-408.27810	967.02229	355.88590	-349.21003	818.46937	93.34597	-351.06516	762.50883	60.11709	-305.31569	931.17176	36.94812	-360.85439	966.88340	52.95094	-304.72435	1319.04484	277.60646	-151.75795	1238.89935	362.94349	-85.51548	1248.77416	253.20377	-111.45516	932.73367	376.51402	-427.34930	896.19833	262.68100	-426.44404	1164.14614	778.64132	-120.11107	1216.55474	681.51730	-121.20524	1187.27596	639.74029	-74.28945	1075.53208	731.14507	-71.19428	1131.89535	630.49118	-69.79538	1095.09125	735.59003	-428.76800	1073.94737	599.52972	-415.05371	991.36604	752.46664	-468.88666	969.50163	613.52335	-450.07852	1141.63623	914.67156	-147.91176	958.22810	957.83337	-208.82390	1142.86371	913.30885	-389.23110	955.27280	967.13912	-325.60468	985.07825	1414.75635	-262.68277	1028.34692	1378.65097	-107.24959	1064.79103	1395.91809	-411.92660	1111.78488	1364.56201	-232.11165	1116.47684	1362.67979	-275.66075	1012.68615	1252.01456	-40.51634	907.78023	1076.62039	-112.22767	916.16450	1080.76781	-36.58563	931.76176	955.18375	-8.49535	934.22636	851.11788	-5.20869	896.54070	855.11525	4.30015	1118.87075	1262.57130	-478.42580	1098.58421	1055.47608	-454.94130	1119.84418	1076.80444	-521.80571	1206.57822	1023.81589	-534.61332	1298.02354	932.25292	-518.73846	1280.59054	913.83426	-539.71296	1049.96645	844.00876	-170.83348	1052.82311	842.75412	-360.18188	1072.61493	837.14532	-185.69940	1068.59811	849.79456	-344.41964	
106	1.05000000	1228.49195	469.95304	-114.92269	1306.24830	385.99834	-133.42561	1345.12763	105.56612	-163.01760	1315.63146	51.19748	-213.79293	1472.14362	102.84598	-137.54328	1494.50329	142.30553	-177.13278	966.76412	461.29699	-407.92161	971.88124	354.31967	-349.21422	819.33059	94.60066	-351.33586	762.92982	61.91399	-305.53577	931.21863	36.86787	-360.91730	966.91343	52.28839	-304.77416	1335.38569	278.48983	-151.26902	1251.96671	360.46610	-84.70831	1265.76863	251.39581	-111.67253	938.37140	376.16243	-427.00267	899.66924	263.02700	-426.47603	1176.89794	775.78959	-119.37088	1227.88870	677.79736	-120.17805	1198.21298	636.60045	-73.01184	1087.68880	729.68298	-70.15603	1142.74152	628.32807	-68.21880	1105.15889	733.54195	-428.66274	1083.00665	597.86688	-415.09251	1001.12712	751.50559	-467.79238	978.16073	612.86801	-449.57106	1154.68643	913.32076	-147.66767	970.62192	955.33560	-207.38979	1154.56779	911.43965	-389.19936	967.01476	964.50112	-324.13778	997.57142	1412.73994	-262.00425	1040.91097	1376.51618	-106.47970	1077.68706	1393.79124	-411.04751	1124.34504	1362.25862	-231.38564	1129.04607	1360.35014	-274.90936	1024.47810	1249.98319	-39.75038	918.71765	1075.33330	-112.14994	926.36430	1079.61995	-36.36466	940.05840	954.03527	-7.71756	941.08652	849.95184	-4.00535	903.38974	854.50456	5.15327	1132.31293	1260.85011	-477.48318	1113.20588	1053.59853	-454.65553	1134.30498	1075.21059	-521.44396	1221.95654	1023.41075	-533.85542	1314.88402	933.20027	-517.70314	1297.66258	914.55808	-538.57030	1063.31554	842.09164	-169.88196	1064.94980	840.52316	-359.24388	1085.84362	835.14669	-185.05890	1080.93526	847.61878	-343.90919	
107	1.06000000	1238.69058	467.34089	-113.48290	1318.27088	385.19691	-132.18394	1364.28918	105.96511	-164.21418	1336.83237	50.91580	-215.20679	1492.77349	105.58996	-139.82847	1513.67169	146.23002	-178.90220	974.28988	460.53365	-407.31521	977.17594	352.74979	-348.99225	820.31169	96.06209	-351.61002	763.43391	64.00210	-305.78718	931.24236	36.81798	-360.90980	967.15522	51.63289	-304.83529	1350.05553	278.52046	-150.87255	1264.22774	357.92023	-84.16059	1280.83789	249.49783	-112.17619	944.49327	375.82657	-426.46079	903.53330	263.45856	-426.37364	1190.00350	773.44168	-118.44633	1239.85836	674.76639	-119.08629	1209.94444	633.87388	-71.79653	1100.36532	728.36495	-69.01180	1154.36636	626.47779	-66.78634	1115.55288	731.46720	-428.35543	1092.58982	596.18979	-414.88125	1011.43594	750.31314	-466.78900	987.32061	612.03933	-448.90801	1167.78661	911.96532	-147.31603	983.15257	952.87043	-205.91004	1166.52624	909.49299	-389.09157	978.99880	961.79110	-322.62458	1010.07996	1410.67832	-261.27486	1053.54474	1374.31051	-105.62929	1090.50896	1391.58941	-410.18194	1136.95241	1359.97457	-230.62224	1141.64483	1358.04016	-274.14541	1036.54687	1247.77154	-38.98928	930.05700	1073.79243	-112.01800	937.04265	1078.21165	-36.10098	948.80021	952.68386	-6.92853	948.34197	848.62469	-2.79409	910.63936	853.73112	6.01328	1145.59546	1258.96295	-476.53564	1127.54433	1051.60183	-454.28172	1148.49236	1073.45879	-521.00274	1236.93782	1022.73707	-533.06351	1331.21842	933.84990	-516.60047	1314.20041	914.98894	-537.35439	1076.77203	840.17973	-168.83875	1077.28634	838.23349	-358.20503	1099.12008	833.20982	-184.30778	1093.46000	845.36421	-343.32489	
108	1.07000000	1249.64230	465.15527	-112.51709	1330.00812	383.68402	-131.23281	1379.82295	105.42073	-165.39205	1353.76352	50.11104	-216.72736	1509.33897	106.11013	-141.66405	1529.34848	147.53287	-180.33938	982.32932	459.70601	-406.43562	983.00955	351.22475	-348.53085	821.44682	97.74617	-351.85717	764.04386	66.43660	-306.06234	931.27155	36.80944	-360.82720	967.60554	50.99004	-304.92055	1363.21278	277.56852	-150.68353	1275.94712	355.36595	-83.92059	1294.10580	247.44768	-112.88120	951.07142	375.52414	-425.70227	907.78038	264.01374	-426.11584	1203.47924	771.67012	-117.31296	1252.54284	672.51352	-117.97577	1222.51225	631.66282	-70.71271	1113.58276	727.18417	-67.83097	1166.81967	624.95177	-65.59185	1126.26517	729.39903	-427.85168	1102.65606	594.51169	-414.37823	1022.27967	748.95094	-465.87303	996.97422	611.06719	-448.05079	1180.93800	910.66515	-146.81955	995.84361	950.49127	-204.43023	1178.75278	907.47382	-388.86947	991.25848	959.05920	-321.10425	1022.61261	1408.61494	-260.49606	1066.22354	1372.08017	-104.70351	1103.24008	1389.36041	-409.33470	1149.59104	1357.75274	-229.81596	1154.26779	1355.80182	-273.35968	1048.87304	1245.43138	-38.22950	941.81872	1072.01866	-111.82210	948.21621	1076.57310	-35.78613	958.01859	951.16100	-6.12734	956.02920	847.16081	-1.57296	918.32888	852.82240	6.88160	1158.69721	1256.95706	-475.59165	1141.59389	1049.52589	-453.81398	1162.40795	1071.59127	-520.47373	1251.50745	1021.82053	-532.23240	1346.99741	934.21871	-515.41764	1330.19964	915.12559	-536.07861	1090.32214	838.33765	-167.68314	1089.85869	835.90618	-357.04472	1112.45099	831.36687	-183.41101	1106.19274	843.05851	-342.63218	
109	1.08000000	1261.47788	463.39682	-112.10716	1341.70285	381.52492	-130.76864	1391.97174	103.79625	-166.44230	1366.45000	48.78042	-218.18108	1522.02940	104.27511	-143.03256	1541.79193	146.04412	-181.52899	990.87857	458.84081	-405.27936	989.43057	349.76484	-347.84588	822.78835	99.66850	-352.07568	764.79540	69.26769	-306.35650	931.34743	36.83856	-360.69529	968.20929	50.32830	-305.04560	1375.08506	275.63353	-150.81428	1287.40583	352.88580	-84.00594	1305.81417	245.24600	-113.66514	958.08241	375.27777	-424.72293	912.39530	264.73098	-425.69737	1217.32823	770.44844	-115.92457	1265.92583	670.98364	-116.85167	1235.83800	629.95461	-69.78258	1127.29215	726.10172	-66.68828	1180.03296	623.69829	-64.68598	1137.29389	727.35958	-427.16363	1113.13391	592.83424	-413.57236	1033.60849	747.50555	-465.03300	1007.08818	609.99174	-446.96171	1194.17638	909.47436	-146.14939	1008.73382	948.23783	-202.99481	1191.26172	905.40122	-388.49934	1003.83534	956.35530	-319.61938	1035.16921	1406.59030	-259.66341	1078.92031	1369.87390	-103.71260	1115.87065	1387.15711	-408.50173	1162.24635	1355.62910	-228.96704	1166.90836	1353.67608	-272.54537	1061.42872	1243.03151	-37.46056	954.02819	1070.04412	-111.56333	959.89233	1074.74943	-35.41739	967.74751	949.51059	-5.31158	964.19898	845.60255	-0.34014	926.49368	851.82607	7.75309	1171.60509	1254.89049	-474.65955	1155.34934	1047.41893	-453.24591	1176.04384	1069.65564	-519.84981	1265.66152	1020.70190	-531.35327	1362.20773	934.32160	-514.15958	1345.64476	914.98001	-534.75407	1103.97930	836.62073	-166.40479	1102.70650	833.56779	-355.75338	1125.87125	829.63945	-182.34617	1119.17278	840.73624	-341.80495	
110	1.09000000	1274.19137	462.00482	-112.25544	1353.49298	378.85995	-130.91573	1401.21010	101.20048	-167.28470	1375.30423	47.12013	-219.46468	1531.31619	100.23083	-143.98533	1551.49573	141.87429	-182.56836	999.94765	457.95380	-403.86330	996.44121	348.36042	-346.97660	824.38726	101.85518	-352.28109	765.74381	72.53660	-306.66552	931.51672	36.89553	-360.56073	968.90006	49.60415	-305.21772	1385.94982	272.85634	-151.33648	1298.84160	350.55170	-84.38552	1316.30369	242.94308	-114.41008	965.52009	375.10953	-423.53556	917.36877	265.64589	-425.12686	1231.53358	769.66473	-114.24075	1279.89620	670.00377	-115.67878	1249.74212	628.63399	-68.97982	1141.38346	725.06579	-65.63416	1193.83578	622.62948	-64.05924	1148.64052	725.36510	-426.30867	1123.95103	591.15570	-412.48786	1045.34386	746.05791	-464.24728	1017.61279	608.85635	-445.60386	1207.56171	908.41856	-145.29735	1021.86794	946.14299	-201.63705	1204.06645	903.30901	-387.96430	1016.77376	953.73209	-318.20636	1047.74004	1404.63480	-258.76530	1091.61132	1367.73891	-102.66835	1128.39701	1385.03370	-407.67201	1174.91032	1353.63478	-228.07710	1179.56044	1351.69384	-271.69729	1074.17455	1240.64869	-36.66730	966.70136	1067.91289	-111.24848	972.06583	1072.79520	-34.99600	978.01976	947.78295	-4.47694	972.91003	844.00171	0.90493	935.16616	850.79975	8.61858	1184.31584	1252.82490	-473.74438	1168.80312	1045.33155	-452.57221	1189.38636	1067.70003	-519.12599	1279.40707	1019.43084	-530.41565	1376.84550	934.16994	-512.84331	1360.51500	914.57425	-533.39013	1117.77264	835.06321	-165.01362	1115.86618	831.25504	-354.34236	1139.42145	828.04274	-181.11501	1132.44133	838.43813	-340.83739	
